#N canvas 834 429 1419 812 12;
#X obj 627 601 +~;
#X obj 571 730 *~;
#X obj 664 698 vline~;
#X obj 567 767 dac~;
#X msg 665 666 1 5 \, 0.6 5 5 \, 0 2000 10;
#X obj 425 23 tgl 15 0 empty empty empty 17 7 0 10 -262144 -1 -1 0
1;
#X obj 480 22 tgl 15 0 empty empty empty 17 7 0 10 -262144 -1 -1 0
1;
#X obj 437 241 osc~;
#X obj 493 84 vsl 15 128 0 2000 0 0 empty empty empty 0 -9 0 10 -204800
-1 -1 4153 1;
#X obj 367 148 metro;
#X obj 367 179 random 2000;
#X obj 643 82 vsl 15 128 0 2000 0 0 empty empty empty 0 -9 0 10 -204800
-1 -1 3035 1;
#X obj 521 151 metro;
#X obj 521 182 random 2000;
#X obj 644 218 / 2000;
#X floatatom 643 240 5 0 0 0 - - -;
#X floatatom 491 223 5 0 0 0 - - -;
#X floatatom 638 18 5 0 0 0 - - -;
#X obj 768 246 osc~;
#X obj 824 89 vsl 15 128 0 2000 0 0 empty empty empty 0 -9 0 10 -204800
-1 -1 4597 1;
#X obj 698 153 metro;
#X obj 698 184 random 2000;
#X obj 974 87 vsl 15 128 0 2000 0 0 empty empty empty 0 -9 0 10 -204800
-1 -1 5251 1;
#X obj 849 156 metro;
#X obj 852 187 random 2000;
#X obj 975 223 / 2000;
#X floatatom 974 245 5 0 0 0 - - -;
#X floatatom 822 228 5 0 0 0 - - -;
#X obj 1110 244 osc~;
#X obj 1166 87 vsl 15 128 0 2000 0 0 empty empty empty 0 -9 0 10 -204800
-1 -1 6191 1;
#X obj 1040 151 metro;
#X obj 1040 182 random 2000;
#X obj 1316 85 vsl 15 128 0 2000 0 0 empty empty empty 0 -9 0 10 -204800
-1 -1 9582 1;
#X obj 1194 154 metro;
#X obj 1194 185 random 2000;
#X obj 1317 221 / 2000;
#X floatatom 1316 243 5 0 0 0 - - -;
#X floatatom 1164 226 5 0 0 0 - - -;
#X obj 102 462 osc~;
#X obj 158 305 vsl 15 128 0 2000 0 0 empty empty empty 0 -9 0 10 -204800
-1 -1 146 1;
#X obj 32 369 metro;
#X obj 32 400 random 2000;
#X obj 308 303 vsl 15 128 0 2000 0 0 empty empty empty 0 -9 0 10 -204800
-1 -1 3118 1;
#X obj 186 372 metro;
#X obj 186 403 random 2000;
#X obj 309 439 / 2000;
#X floatatom 308 461 5 0 0 0 - - -;
#X floatatom 156 444 5 0 0 0 - - -;
#X obj 444 460 osc~;
#X obj 500 303 vsl 15 128 0 2000 0 0 empty empty empty 0 -9 0 10 -204800
-1 -1 4178 1;
#X obj 374 367 metro;
#X obj 374 398 random 2000;
#X obj 650 301 vsl 15 128 0 2000 0 0 empty empty empty 0 -9 0 10 -204800
-1 -1 11144 1;
#X obj 528 370 metro;
#X obj 528 401 random 2000;
#X obj 651 437 / 2000;
#X floatatom 650 459 5 0 0 0 - - -;
#X floatatom 498 442 5 0 0 0 - - -;
#X obj 775 465 osc~;
#X obj 831 308 vsl 15 128 0 2000 0 0 empty empty empty 0 -9 0 10 -204800
-1 -1 4661 1;
#X obj 705 372 metro;
#X obj 705 403 random 2000;
#X obj 981 306 vsl 15 128 0 2000 0 0 empty empty empty 0 -9 0 10 -204800
-1 -1 8560 1;
#X obj 859 375 metro;
#X obj 859 406 random 2000;
#X obj 982 442 / 2000;
#X floatatom 981 464 5 0 0 0 - - -;
#X floatatom 787 437 5 0 0 0 - - -;
#X obj 1117 463 osc~;
#X obj 1173 306 vsl 15 128 0 2000 0 0 empty empty empty 0 -9 0 10 -204800
-1 -1 6515 1;
#X obj 1047 370 metro;
#X obj 1047 401 random 2000;
#X obj 1323 304 vsl 15 128 0 2000 0 0 empty empty empty 0 -9 0 10 -204800
-1 -1 4070 1;
#X obj 1201 373 metro;
#X obj 1201 404 random 2000;
#X obj 1324 440 / 2000;
#X floatatom 1323 462 5 0 0 0 - - -;
#X floatatom 1171 445 5 0 0 0 - - -;
#X msg 417 148 seed 64;
#X msg 571 151 seed 624;
#X msg 748 153 seed 61;
#X msg 902 156 seed 151;
#X msg 1090 151 seed 453;
#X msg 1244 154 seed 645;
#X msg 82 369 seed 55;
#X msg 236 372 seed 66;
#X msg 424 367 seed 77;
#X msg 578 370 seed 88;
#X msg 755 372 seed 57;
#X msg 909 375 seed 33;
#X msg 1097 370 seed 2;
#X msg 1251 373 seed 1;
#X obj 19 48 cnv 15 340 200 empty empty empty 20 12 0 14 -249661 -66577
0;
#X obj 98 215 osc~;
#X obj 154 58 vsl 15 128 0 2000 0 0 empty empty empty 0 -9 0 10 -204800
-1 -1 8700 1;
#X obj 28 122 metro;
#X obj 28 153 random 2000;
#X msg 78 122 seed 132;
#X obj 304 56 vsl 15 128 0 2000 0 0 empty empty empty 0 -9 0 10 -204800
-1 -1 9500 1;
#X obj 182 125 metro;
#X obj 182 156 random 2000;
#X msg 232 125 seed 43;
#X obj 305 192 / 2000;
#X floatatom 304 214 5 0 0 0 - - -;
#X floatatom 152 197 5 0 0 0 - - -;
#X text 67 662 8 moduli costituiti da generatori casuali di ampiezze
e frequenze. Le frequenze sono comprese tra 0 e 2000Hz.I valori casuali
sono generati da una coppia di metronomi che possono essere attivati
o disattivati.;
#X text 1181 14 SINTESI ADDITIVA - Un gioco;
#X text 844 667 Inviluppo (la forma è quella di un ADSR);
#X obj 571 639 *~ 0.125;
#X text 685 17 Intervallo di tempo dei metronomi in millisecondi;
#X connect 0 0 108 0;
#X connect 1 0 3 0;
#X connect 1 0 3 1;
#X connect 2 0 1 1;
#X connect 4 0 2 0;
#X connect 5 0 9 0;
#X connect 5 0 20 0;
#X connect 5 0 40 0;
#X connect 5 0 50 0;
#X connect 5 0 60 0;
#X connect 5 0 70 0;
#X connect 5 0 6 0;
#X connect 5 0 30 0;
#X connect 5 0 23 0;
#X connect 5 0 95 0;
#X connect 6 0 12 0;
#X connect 6 0 43 0;
#X connect 6 0 53 0;
#X connect 6 0 63 0;
#X connect 6 0 73 0;
#X connect 6 0 33 0;
#X connect 6 0 99 0;
#X connect 7 0 0 0;
#X connect 8 0 7 0;
#X connect 8 0 16 0;
#X connect 9 0 10 0;
#X connect 10 0 8 0;
#X connect 11 0 14 0;
#X connect 12 0 13 0;
#X connect 13 0 11 0;
#X connect 14 0 15 0;
#X connect 14 0 7 1;
#X connect 17 0 9 1;
#X connect 17 0 12 1;
#X connect 17 0 20 1;
#X connect 17 0 23 1;
#X connect 17 0 30 1;
#X connect 17 0 33 1;
#X connect 17 0 40 1;
#X connect 17 0 43 1;
#X connect 17 0 50 1;
#X connect 17 0 53 1;
#X connect 17 0 60 1;
#X connect 17 0 63 1;
#X connect 17 0 70 1;
#X connect 17 0 73 1;
#X connect 18 0 0 0;
#X connect 19 0 18 0;
#X connect 19 0 27 0;
#X connect 20 0 21 0;
#X connect 21 0 19 0;
#X connect 22 0 25 0;
#X connect 23 0 24 0;
#X connect 24 0 22 0;
#X connect 25 0 26 0;
#X connect 25 0 18 1;
#X connect 28 0 0 0;
#X connect 29 0 28 0;
#X connect 29 0 37 0;
#X connect 30 0 31 0;
#X connect 31 0 29 0;
#X connect 32 0 35 0;
#X connect 33 0 34 0;
#X connect 34 0 32 0;
#X connect 35 0 36 0;
#X connect 35 0 28 1;
#X connect 38 0 0 1;
#X connect 39 0 38 0;
#X connect 39 0 47 0;
#X connect 40 0 41 0;
#X connect 41 0 39 0;
#X connect 42 0 45 0;
#X connect 43 0 44 0;
#X connect 44 0 42 0;
#X connect 45 0 46 0;
#X connect 45 0 38 1;
#X connect 48 0 0 1;
#X connect 49 0 48 0;
#X connect 49 0 57 0;
#X connect 50 0 51 0;
#X connect 51 0 49 0;
#X connect 52 0 55 0;
#X connect 53 0 54 0;
#X connect 54 0 52 0;
#X connect 55 0 56 0;
#X connect 55 0 48 1;
#X connect 58 0 0 1;
#X connect 59 0 67 0;
#X connect 60 0 61 0;
#X connect 61 0 59 0;
#X connect 62 0 65 0;
#X connect 63 0 64 0;
#X connect 64 0 62 0;
#X connect 65 0 66 0;
#X connect 65 0 58 1;
#X connect 67 0 58 0;
#X connect 68 0 0 1;
#X connect 69 0 68 0;
#X connect 69 0 77 0;
#X connect 70 0 71 0;
#X connect 71 0 69 0;
#X connect 72 0 75 0;
#X connect 73 0 74 0;
#X connect 74 0 72 0;
#X connect 75 0 76 0;
#X connect 75 0 68 1;
#X connect 78 0 10 0;
#X connect 79 0 13 0;
#X connect 80 0 21 0;
#X connect 81 0 24 0;
#X connect 82 0 31 0;
#X connect 83 0 34 0;
#X connect 84 0 41 0;
#X connect 85 0 44 0;
#X connect 86 0 51 0;
#X connect 87 0 54 0;
#X connect 88 0 61 0;
#X connect 89 0 64 0;
#X connect 90 0 71 0;
#X connect 91 0 74 0;
#X connect 93 0 0 0;
#X connect 94 0 93 0;
#X connect 94 0 104 0;
#X connect 95 0 96 0;
#X connect 96 0 94 0;
#X connect 97 0 96 0;
#X connect 98 0 102 0;
#X connect 99 0 100 0;
#X connect 100 0 98 0;
#X connect 101 0 100 0;
#X connect 102 0 103 0;
#X connect 102 0 93 1;
#X connect 108 0 1 0;
